<svg version="1.1" id="Layer_1" xmlns="http://www.w3.org/2000/svg" xmlns:xlink="http://www.w3.org/1999/xlink" x="0px" y="0px"
	 width="100%" viewBox="0 0 720 400" enable-background="new 0 0 720 400" xml:space="preserve">
<path fill="#000000" opacity="1.000000" stroke="none" 
	d="
M106.254166,236.145508 
	C105.569023,240.495178 104.883568,244.421173 104.274780,248.359039 
	C103.035606,256.374573 99.372162,262.770996 92.143356,266.860291 
	C91.179565,267.405518 90.325043,268.143890 88.558708,269.410248 
	C95.567879,269.799347 101.602928,269.971283 108.811813,271.377960 
	C102.594879,276.503326 99.484009,283.775543 90.294884,282.360107 
	C79.149529,280.643341 67.722923,281.960175 56.428669,280.153809 
	C59.003674,273.495941 66.753685,268.134033 72.992599,268.668335 
	C76.762436,268.991180 79.335312,267.382050 81.528664,264.570312 
	C86.756851,257.868256 88.613693,249.934326 89.589935,241.799881 
	C92.340782,218.878860 94.877495,195.932083 97.485443,172.993973 
	C97.633354,171.693024 97.933693,170.346924 96.539307,168.409821 
	C83.896843,171.511230 70.820671,174.275146 62.879009,186.540131 
	C58.277603,193.646484 58.942513,201.573318 61.958336,209.081711 
	C63.350056,212.546646 62.777554,214.620453 60.105373,216.797882 
	C56.396420,219.820114 52.835537,223.024078 48.427338,226.826431 
	C45.756119,219.606934 45.305805,213.023026 46.091694,206.268692 
	C48.130466,188.746368 57.978493,176.437805 72.834763,168.157089 
	C94.155251,156.273346 117.132141,154.788315 140.603973,159.613510 
	C166.496887,164.936417 167.348694,189.198288 158.798599,204.376236 
	C151.704224,216.970016 139.991959,223.847839 126.677307,228.195389 
	C121.478584,229.892899 116.128403,231.241486 110.574028,231.421432 
	C107.886292,231.508530 106.120819,232.704300 106.254166,236.145508 
M111.355606,188.717087 
	C110.647957,195.651505 109.891762,202.581375 109.243202,209.521301 
	C108.053787,222.248886 108.095566,222.487549 121.086868,221.646225 
	C143.975037,220.164001 151.814240,203.508987 146.470612,183.770966 
	C143.584015,173.108643 126.575485,164.563263 115.873817,167.285263 
	C113.457603,167.899857 113.506371,169.635788 113.306122,171.491180 
	C112.718483,176.936295 112.037109,182.371262 111.355606,188.717087 
z"/>
<path fill="#000000" opacity="1.000000" stroke="none" 
	d="
M405.550049,261.464966 
	C403.930634,279.462433 402.949982,297.118622 397.289856,313.991638 
	C389.342133,337.684052 365.830200,354.944733 342.681885,354.293427 
	C339.196686,354.195374 335.753723,353.771088 332.273376,351.317169 
	C335.580536,347.134613 339.510071,343.906250 343.431458,340.691559 
	C344.751190,339.609619 346.305939,340.318665 347.757904,340.630066 
	C367.855011,344.940002 379.603424,337.547180 384.680908,317.448395 
	C387.749634,305.301147 388.280151,292.813934 389.631073,280.444183 
	C391.687103,261.618286 393.474365,242.763046 395.383575,223.921051 
	C395.751984,220.284958 396.107422,216.646408 396.559448,213.020279 
	C396.915131,210.166916 395.594910,209.206268 392.894623,209.027023 
	C389.335419,208.790787 385.599884,209.920288 381.429077,207.601669 
	C385.618408,203.367722 388.027985,197.674927 394.578857,196.962173 
	C398.014099,196.588409 398.418427,194.413513 398.643921,191.775238 
	C399.642639,180.089783 402.223846,168.762161 407.069275,158.071304 
	C414.993988,140.586411 427.389008,128.092758 446.863617,124.227890 
	C453.986664,122.814285 461.243866,122.647873 469.612823,124.638329 
	C465.502014,129.634689 461.642426,133.588943 457.186462,136.893250 
	C455.670105,138.017700 453.664032,137.030533 451.877319,136.580872 
	C434.795410,132.281982 423.613678,138.529510 418.537628,155.305222 
	C414.807739,167.631866 414.078827,180.466125 412.410828,193.137634 
	C411.962891,196.540436 414.176300,196.903946 416.786133,196.892822 
	C424.947601,196.858047 433.109558,196.851120 441.270752,196.910187 
	C443.029297,196.922897 444.957794,196.407135 447.031097,198.431503 
	C442.076050,203.208740 438.941803,210.036713 430.112518,209.113327 
	C425.335846,208.613754 420.458405,209.159485 415.632233,209.024796 
	C411.785522,208.917450 410.580566,210.623306 410.253693,214.385971 
	C408.902161,229.944962 407.201538,245.473618 405.550049,261.464966 
z"/>
<path fill="#000000" opacity="1.000000" stroke="none" 
	d="
M522.258911,247.418274 
	C525.089233,223.716766 526.340027,200.250748 530.828064,177.233063 
	C534.176514,160.059692 542.701111,145.477783 556.186279,134.120132 
	C566.514954,125.420967 578.475403,121.810379 591.962646,123.704796 
	C592.774658,123.818840 593.640564,123.829201 594.542603,125.570145 
	C590.962646,129.733902 587.045837,134.085037 582.416443,137.759125 
	C581.302795,138.643021 579.864380,137.899277 578.552856,137.678421 
	C563.031494,135.064713 553.076721,141.140030 548.353027,156.096680 
	C544.514221,168.251144 543.797180,180.917664 542.357605,193.455856 
	C540.101868,213.102310 538.049438,232.772171 535.768127,252.415558 
	C535.265137,256.747192 535.349060,261.054932 535.333374,265.378937 
	C535.327820,266.909943 535.462158,268.540955 537.106934,269.193176 
	C538.798401,269.863922 539.904602,268.456726 541.005554,267.529785 
	C544.646118,264.464661 547.078491,260.511444 549.092773,256.255859 
	C549.622681,255.136398 549.826721,253.392853 551.678467,253.780273 
	C553.629272,254.188400 554.182190,255.765762 554.233093,257.571594 
	C554.237732,257.737579 554.218018,257.904175 554.212036,258.070587 
	C553.893250,266.861237 536.676025,282.893372 527.912415,282.561615 
	C523.163696,282.381866 521.102600,279.418182 520.693237,275.164612 
	C519.811340,266.002563 521.056274,256.927277 522.258911,247.418274 
z"/>
<path fill="#000000" opacity="1.000000" stroke="none" 
	d="
M665.349487,268.335236 
	C658.020569,275.639252 650.364441,281.556946 639.867188,282.480835 
	C626.045532,283.697296 617.799500,276.522888 616.656860,262.549591 
	C614.616089,237.592804 625.249329,218.427307 643.576477,202.705368 
	C646.495422,200.201401 649.892761,198.405396 653.487671,196.986221 
	C671.071655,190.044617 684.473450,199.002884 685.363098,217.914871 
	C686.293701,237.697525 678.347778,253.786392 665.349487,268.335236 
M632.696045,257.668915 
	C634.543518,263.785706 637.136353,269.419159 644.238953,270.673645 
	C652.222961,272.083832 658.251282,268.587341 662.392639,261.969971 
	C671.220947,247.863586 672.643555,232.553055 667.943909,216.927811 
	C664.652710,205.985199 653.416992,203.079315 644.311462,210.089554 
	C639.385254,213.882172 636.606628,219.207382 634.622437,224.924103 
	C631.000977,235.357300 630.365601,246.035614 632.696045,257.668915 
z"/>
<path fill="#000000" opacity="1.000000" stroke="none" 
	d="
M213.377625,269.371338 
	C206.418869,276.082489 199.112595,281.442230 189.446747,282.398773 
	C175.216660,283.806946 166.849350,276.789154 165.690887,262.580139 
	C163.608627,237.039978 174.670151,217.563431 193.743011,201.818161 
	C196.441452,199.590515 199.568985,197.977570 202.879227,196.749008 
	C220.333755,190.270935 233.538116,199.289078 234.373367,217.866394 
	C235.288300,238.216644 226.970154,254.636078 213.377625,269.371338 
M218.613861,243.039459 
	C219.332855,236.416809 219.764084,229.778275 218.609497,223.173584 
	C217.333389,215.873642 215.110321,209.129562 206.830261,206.879822 
	C200.102325,205.051804 193.177658,208.069321 188.329651,215.646332 
	C179.882675,228.848160 178.547806,243.326355 181.982697,258.322327 
	C183.336594,264.233124 186.260345,269.333313 192.904282,270.648193 
	C199.957703,272.044098 205.616791,269.467560 210.060089,263.936340 
	C214.784775,258.054840 216.944885,251.104462 218.613861,243.039459 
z"/>
<path fill="#000000" opacity="1.000000" stroke="none" 
	d="
M503.026031,241.719452 
	C497.559204,255.297958 489.801178,266.739532 478.341705,275.409393 
	C473.367706,279.172577 467.858215,281.786560 461.523621,282.407928 
	C447.316162,283.801575 438.886139,276.854675 437.705292,262.671143 
	C435.562958,236.938019 446.802277,217.382263 466.084045,201.635178 
	C469.446899,198.888809 473.423340,196.999603 477.632416,195.871750 
	C494.016388,191.481674 505.418671,200.067551 506.312622,217.273727 
	C506.740448,225.508301 505.755280,233.524979 503.026031,241.719452 
M488.110992,252.601135 
	C491.911926,241.478012 492.396179,230.172699 489.618652,218.790558 
	C488.105072,212.588074 484.679199,207.819290 477.923309,206.623367 
	C471.376648,205.464462 465.912567,208.038239 462.164490,213.132782 
	C451.319702,227.873520 449.572540,244.363388 455.122406,261.368958 
	C458.563934,271.914368 470.659058,274.360962 479.060944,267.016541 
	C483.295441,263.314972 486.002655,258.591095 488.110992,252.601135 
z"/>
<path fill="#000000" opacity="1.000000" stroke="none" 
	d="
M339.916809,282.653046 
	C331.023834,281.691254 327.162262,277.313324 326.774597,267.858459 
	C326.370636,258.006287 328.246887,248.316971 329.173065,238.562469 
	C330.079803,229.012543 331.196899,219.482559 332.235504,209.815201 
	C326.248138,208.043564 320.472778,210.046600 315.028961,208.398865 
	C316.872070,202.654037 323.701843,196.943527 329.122955,196.971146 
	C332.543610,196.988556 333.987518,195.555664 334.303284,192.421616 
	C334.369781,191.761566 334.534607,191.111526 334.603790,190.451614 
	C335.643921,180.532944 338.620667,177.894958 349.883362,177.580627 
	C349.503601,181.701981 349.314667,185.793182 348.712280,189.822571 
	C347.751587,196.248672 348.123047,196.857117 354.429382,196.875275 
	C362.256927,196.897812 370.084595,196.869141 377.912079,196.895691 
	C379.868042,196.902313 381.900421,196.647354 383.655823,197.843216 
	C381.645050,204.037064 375.081116,209.011292 369.012573,209.042953 
	C362.850769,209.075119 356.688782,209.073517 350.527069,209.114700 
	C348.433533,209.128693 346.601715,209.325150 346.315033,212.158875 
	C344.693115,228.190414 342.205292,244.132248 341.332825,260.241058 
	C341.243073,261.898407 341.218414,263.595337 341.465515,265.228241 
	C342.260468,270.481659 346.075470,272.561920 350.893860,270.343506 
	C354.136841,268.850403 356.560059,266.317291 358.769684,263.562256 
	C359.776123,262.307343 360.418610,260.598450 362.656006,260.300018 
	C365.496674,263.091553 364.353546,266.064301 362.399750,268.590485 
	C356.755402,275.888184 349.915527,281.485229 339.916809,282.653046 
z"/>
<path fill="#000000" opacity="1.000000" stroke="none" 
	d="
M257.927185,280.977417 
	C252.884094,282.413361 253.508881,279.041168 253.768707,276.513031 
	C254.821503,266.268616 256.054169,256.042725 257.214264,245.809280 
	C258.355743,235.739868 259.588593,225.679077 260.556427,215.592926 
	C260.794281,213.114349 261.667206,209.796951 258.396637,208.583069 
	C255.375595,207.461807 253.352753,209.955872 251.764755,212.007187 
	C249.251266,215.254028 247.128433,218.803268 244.715775,222.410721 
	C240.980927,220.825531 241.078979,217.973145 242.461517,215.409866 
	C247.437653,206.183884 254.668137,199.155182 264.533325,195.401733 
	C270.228302,193.234909 274.894257,197.012680 275.299133,203.508972 
	C275.776947,211.174530 274.124054,218.700821 273.675751,227.063889 
	C277.322144,221.701874 280.383545,216.676804 283.963562,212.053314 
	C289.935852,204.340347 296.551361,197.319901 306.750885,195.234848 
	C311.815369,194.199524 316.167877,195.028214 321.071991,198.437790 
	C316.987885,202.820633 313.001190,207.169006 308.918915,211.425735 
	C308.009338,212.374176 306.747009,211.870056 305.602112,211.563400 
	C298.909119,209.770706 293.487183,212.078598 288.931946,216.903656 
	C278.554565,227.895630 272.334167,240.901917 270.353912,255.887344 
	C269.548737,261.980377 268.899750,268.096588 268.319458,274.215485 
	C268.100311,276.526245 267.077362,277.847809 264.876587,278.512146 
	C262.649078,279.184601 260.483429,280.062073 257.927185,280.977417 
z"/>
<path fill="#000000" opacity="1.000000" stroke="none" 
	d="
M578.643860,239.798553 
	C579.891724,230.983658 581.106140,222.609970 582.354614,214.241348 
	C582.655090,212.227219 583.116455,209.995346 581.098511,208.794540 
	C578.830017,207.444656 577.054565,209.182968 575.340027,210.523087 
	C571.378723,213.619247 569.720093,218.597702 566.213501,222.404572 
	C562.928528,220.184723 563.409546,217.664017 564.710083,215.211441 
	C569.401245,206.364258 576.600952,199.994446 585.565247,195.917923 
	C592.395630,192.811798 597.018433,196.090286 597.290039,203.620712 
	C597.573303,211.471588 595.752502,219.128845 594.737488,226.850235 
	C593.115845,239.186890 591.147156,251.477646 589.456299,263.805786 
	C589.200989,265.667511 588.579346,268.132202 590.830994,269.206390 
	C592.967224,270.225555 594.565369,268.403107 596.077637,267.166626 
	C600.400696,263.631866 602.342102,258.296600 605.512573,253.839935 
	C609.097961,254.911011 609.618835,257.152039 608.218079,259.704559 
	C603.350342,268.574890 597.344604,276.542023 588.017090,281.129486 
	C579.735352,285.202667 574.592773,281.909882 574.683716,272.828033 
	C574.793884,261.830048 577.145935,251.084702 578.643860,239.798553 
z"/>
<path fill="#000000" opacity="1.000000" stroke="none" 
	d="
M602.335449,175.376373 
	C597.803650,178.864899 593.776550,182.506729 588.428955,184.596359 
	C589.429382,168.693207 600.414062,161.583679 611.940186,154.914581 
	C614.982788,160.607925 612.577576,165.821716 602.335449,175.376373 
z"/>
</svg>